<?xml version="1.0" standalone="no"?>
<!DOCTYPE svg PUBLIC "-//W3C//DTD SVG 20010904//EN"
 "http://www.w3.org/TR/2001/REC-SVG-20010904/DTD/svg10.dtd">
<svg version="1.0" xmlns="http://www.w3.org/2000/svg"
 width="512.000000pt" height="512.000000pt" viewBox="0 0 512.000000 512.000000"
 preserveAspectRatio="xMidYMid meet">
<metadata>
Created by potrace 1.14, written by Peter Selinger 2001-2017
</metadata>
<g transform="translate(0.000000,512.000000) scale(0.100000,-0.100000)"
fill="#000000" stroke="none">
<path d="M840 4920 l0 -200 -142 -1 c-170 0 -193 -3 -278 -29 -92 -28 -183
-85 -254 -160 -74 -79 -120 -162 -146 -266 -19 -75 -20 -117 -19 -1903 1
-1524 3 -1837 15 -1891 47 -218 236 -407 454 -454 54 -12 395 -14 2091 -15
1969 -1 2028 0 2102 18 115 30 189 72 276 159 88 87 142 182 165 292 22 100
22 3673 1 3775 -42 200 -191 369 -389 441 -79 28 -115 33 -293 33 l-143 1 0
200 0 200 -200 0 -200 0 0 -200 0 -200 -1320 0 -1320 0 0 200 0 200 -200 0
-200 0 0 -200z m0 -800 l0 -200 200 0 200 0 0 200 0 200 1320 0 1320 0 0 -200
0 -200 200 0 200 0 0 201 0 201 153 -3 c144 -4 156 -6 190 -29 21 -14 50 -43
65 -64 l27 -39 3 -294 3 -293 -2160 0 -2161 0 0 279 c0 298 3 317 52 371 27
30 66 56 93 63 11 2 82 5 158 6 l137 1 0 -200z m720 -1520 l0 -600 -580 0
-580 0 0 600 0 600 580 0 580 0 0 -600z m1600 0 l0 -600 -600 0 -600 0 0 600
0 600 600 0 600 0 0 -600z m1560 0 l0 -600 -580 0 -580 0 0 600 0 600 580 0
580 0 0 -600z m-3160 -1600 l0 -601 -513 3 c-566 3 -532 0 -595 67 -51 56 -51
54 -52 611 l0 520 580 0 580 0 0 -600z m1600 0 l0 -600 -600 0 -600 0 0 600 0
600 600 0 600 0 0 -600z m1559 78 c-1 -419 -4 -529 -15 -555 -19 -45 -81 -101
-123 -113 -22 -6 -231 -10 -528 -10 l-493 0 0 600 0 600 580 0 580 0 -1 -522z"/>
</g>
</svg>
